<svg xmlns="http://www.w3.org/2000/svg" xmlns:xlink="http://www.w3.org/1999/xlink" width="240" zoomAndPan="magnify" viewBox="0 0 180 60" height="80" preserveAspectRatio="xMidYMid meet" version="1.2"><defs><clipPath id="38f61ee989"><path d="M 119 15 L 128 15 L 128 47.25 L 119 47.25 Z M 119 15 "/></clipPath><clipPath id="f56310b2d7"><path d="M 117 6 L 137.605469 6 L 137.605469 27 L 117 27 Z M 117 6 "/></clipPath></defs><g id="d807d97f4d"><g clip-rule="nonzero" clip-path="url(#38f61ee989)"><path style=" stroke:none;fill-rule:nonzero;fill:#5e6a48;fill-opacity:1;" d="M 119.167969 47.253906 C 118.796875 23.074219 126.582031 15.964844 126.914062 15.671875 L 127.882812 16.78125 C 127.863281 16.800781 125.964844 18.53125 124.132812 23.117188 C 122.433594 27.367188 120.449219 35 120.636719 47.230469 Z M 119.167969 47.253906 "/></g><g clip-rule="nonzero" clip-path="url(#f56310b2d7)"><path style=" stroke:none;fill-rule:nonzero;fill:#fa6e00;fill-opacity:1;" d="M 132.59375 24.914062 C 130.648438 25.171875 128.515625 19.339844 128.269531 18.652344 C 128.292969 20.269531 128.296875 26.203125 126.460938 26.632812 C 125.871094 26.773438 125.320312 26.308594 125.203125 26.207031 C 123.742188 24.972656 124.113281 21.535156 125.933594 17.632812 C 125.179688 18.257812 120.179688 22.355469 118.648438 21.109375 C 118.316406 20.839844 118.265625 20.421875 118.253906 20.332031 C 117.972656 17.96875 124.351562 15.546875 124.714844 15.410156 C 121.15625 14.703125 117.082031 13.648438 117.089844 12.375 C 117.09375 11.980469 117.492188 11.695312 117.679688 11.554688 C 119.164062 10.480469 122.058594 11.335938 125.015625 13.5 C 123.789062 12.160156 120.195312 8.089844 121.15625 6.757812 C 121.371094 6.457031 121.746094 6.398438 121.867188 6.378906 C 124.222656 6 126.957031 12.039062 127.167969 12.519531 C 127.476562 10.457031 128.199219 6.546875 129.570312 6.433594 C 130.136719 6.386719 130.582031 7.007812 130.636719 7.085938 C 131.535156 8.332031 130.777344 10.808594 128.71875 13.261719 C 129.472656 12.625 134.121094 8.773438 135.601562 9.9375 C 136.027344 10.269531 136.035156 10.882812 136.035156 10.992188 C 136.058594 12.566406 133.746094 14.199219 130.3125 15.089844 C 131.898438 15.453125 137.597656 16.84375 137.582031 18.726562 C 137.578125 19.316406 137.015625 19.730469 136.90625 19.808594 C 135.511719 20.835938 132.617188 19.863281 129.703125 17.421875 C 130.203125 17.972656 134.5 22.785156 133.332031 24.457031 C 133.308594 24.484375 133.046875 24.851562 132.59375 24.914062 Z M 132.59375 24.914062 "/></g><path style=" stroke:none;fill-rule:nonzero;fill:#ffb14f;fill-opacity:1;" d="M 126.3125 16.890625 C 125.433594 16.046875 125.734375 14.378906 126.65625 13.8125 C 127.257812 13.441406 127.945312 13.644531 127.976562 13.65625 C 128.773438 13.90625 129.183594 14.746094 129.238281 15.410156 C 129.246094 15.484375 129.328125 16.761719 128.316406 17.242188 C 127.628906 17.566406 126.796875 17.355469 126.3125 16.890625 Z M 126.3125 16.890625 "/><path style=" stroke:none;fill-rule:nonzero;fill:#5e6a48;fill-opacity:1;" d="M 126.277344 34.5 C 124.144531 35.882812 120.910156 37.21875 120.34375 36.441406 C 119.808594 35.707031 121.664062 33.144531 123.832031 31.589844 C 126.472656 29.699219 130.089844 28.941406 130.570312 29.789062 C 131.046875 30.632812 128.4375 33.101562 126.277344 34.5 Z M 126.277344 34.5 "/><path style=" stroke:none;fill-rule:nonzero;fill:#091a21;fill-opacity:1;" d="M 120.9375 35.976562 C 120.902344 35.976562 120.863281 35.960938 120.839844 35.929688 C 120.800781 35.875 120.808594 35.796875 120.863281 35.757812 C 120.914062 35.714844 126.125 31.671875 129.609375 30.210938 C 129.671875 30.183594 129.742188 30.214844 129.769531 30.277344 C 129.796875 30.339844 129.765625 30.410156 129.703125 30.4375 C 126.25 31.886719 121.066406 35.910156 121.011719 35.949219 C 120.992188 35.96875 120.964844 35.976562 120.9375 35.976562 Z M 120.9375 35.976562 "/><path style=" stroke:none;fill-rule:nonzero;fill:#5e6a48;fill-opacity:1;" d="M 117.664062 25.917969 C 118.609375 27.71875 120.335938 29.925781 121.035156 29.609375 C 121.695312 29.3125 121.40625 26.796875 120.507812 24.859375 C 119.410156 22.5 117.1875 20.542969 116.523438 20.941406 C 115.863281 21.339844 116.710938 24.089844 117.664062 25.917969 Z M 117.664062 25.917969 "/><path style=" stroke:none;fill-rule:nonzero;fill:#091a21;fill-opacity:1;" d="M 120.851562 29.089844 C 120.800781 29.089844 120.757812 29.0625 120.738281 29.015625 C 120.71875 28.964844 118.6875 24.121094 116.851562 21.75 C 116.8125 21.695312 116.820312 21.621094 116.875 21.578125 C 116.925781 21.535156 117.003906 21.546875 117.046875 21.601562 C 118.898438 23.996094 120.941406 28.871094 120.964844 28.917969 C 120.988281 28.980469 120.960938 29.054688 120.898438 29.082031 C 120.882812 29.085938 120.867188 29.089844 120.851562 29.089844 Z M 120.851562 29.089844 "/><g style="fill:#5e6a48;fill-opacity:1;"><g transform="translate(20.815196, 46.530376)"><path style="stroke:none" d="M 12.234375 -7.234375 L 5.234375 -7.234375 L 5.234375 0 L 1.578125 0 L 1.578125 -17.703125 L 13.109375 -17.703125 L 13.109375 -14.75 L 5.234375 -14.75 L 5.234375 -10.171875 L 12.234375 -10.171875 Z M 12.234375 -7.234375 "/></g><g transform="translate(34.456014, 46.530376)"><path style="stroke:none" d="M 5.234375 -2.9375 L 12.96875 -2.9375 L 12.96875 0 L 1.578125 0 L 1.578125 -17.703125 L 5.234375 -17.703125 Z M 5.234375 -2.9375 "/></g></g><g style="fill:#5e6a48;fill-opacity:1;"><g transform="translate(47.160698, 46.530376)"><path style="stroke:none" d="M 16.125 -8.453125 C 16.125 -6.710938 15.816406 -5.179688 15.203125 -3.859375 C 14.585938 -2.546875 13.703125 -1.53125 12.546875 -0.8125 C 11.398438 -0.101562 10.085938 0.25 8.609375 0.25 C 7.140625 0.25 5.828125 -0.101562 4.671875 -0.8125 C 3.523438 -1.519531 2.632812 -2.523438 2 -3.828125 C 1.375 -5.140625 1.054688 -6.648438 1.046875 -8.359375 L 1.046875 -9.234375 C 1.046875 -10.972656 1.359375 -12.503906 1.984375 -13.828125 C 2.617188 -15.160156 3.507812 -16.179688 4.65625 -16.890625 C 5.800781 -17.597656 7.109375 -17.953125 8.578125 -17.953125 C 10.054688 -17.953125 11.367188 -17.597656 12.515625 -16.890625 C 13.660156 -16.179688 14.546875 -15.160156 15.171875 -13.828125 C 15.804688 -12.503906 16.125 -10.976562 16.125 -9.25 Z M 12.421875 -9.25 C 12.421875 -11.113281 12.085938 -12.523438 11.421875 -13.484375 C 10.765625 -14.453125 9.816406 -14.9375 8.578125 -14.9375 C 7.359375 -14.9375 6.414062 -14.457031 5.75 -13.5 C 5.082031 -12.550781 4.75 -11.15625 4.75 -9.3125 L 4.75 -8.453125 C 4.75 -6.640625 5.078125 -5.234375 5.734375 -4.234375 C 6.398438 -3.242188 7.359375 -2.75 8.609375 -2.75 C 9.835938 -2.75 10.78125 -3.226562 11.4375 -4.1875 C 12.09375 -5.144531 12.421875 -6.546875 12.421875 -8.390625 Z M 12.421875 -9.25 "/></g><g transform="translate(64.351533, 46.530376)"><path style="stroke:none" d="M 15.375 -5.109375 L 17.75 -17.703125 L 21.390625 -17.703125 L 17.46875 0 L 13.796875 0 L 10.90625 -11.84375 L 8.03125 0 L 4.359375 0 L 0.421875 -17.703125 L 4.0625 -17.703125 L 6.453125 -5.125 L 9.375 -17.703125 L 12.46875 -17.703125 Z M 15.375 -5.109375 "/></g><g transform="translate(86.12578, 46.530376)"><path style="stroke:none" d="M 12.234375 -7.671875 L 5.234375 -7.671875 L 5.234375 -2.9375 L 13.453125 -2.9375 L 13.453125 0 L 1.578125 0 L 1.578125 -17.703125 L 13.421875 -17.703125 L 13.421875 -14.75 L 5.234375 -14.75 L 5.234375 -10.53125 L 12.234375 -10.53125 Z M 12.234375 -7.671875 "/></g><g transform="translate(100.131326, 46.530376)"><path style="stroke:none" d="M 8.140625 -6.484375 L 5.234375 -6.484375 L 5.234375 0 L 1.578125 0 L 1.578125 -17.703125 L 8.15625 -17.703125 C 10.25 -17.703125 11.863281 -17.234375 13 -16.296875 C 14.132812 -15.367188 14.703125 -14.054688 14.703125 -12.359375 C 14.703125 -11.148438 14.441406 -10.140625 13.921875 -9.328125 C 13.398438 -8.523438 12.609375 -7.882812 11.546875 -7.40625 L 15.375 -0.171875 L 15.375 0 L 11.453125 0 Z M 5.234375 -9.4375 L 8.171875 -9.4375 C 9.085938 -9.4375 9.796875 -9.664062 10.296875 -10.125 C 10.796875 -10.59375 11.046875 -11.238281 11.046875 -12.0625 C 11.046875 -12.894531 10.804688 -13.550781 10.328125 -14.03125 C 9.859375 -14.507812 9.132812 -14.75 8.15625 -14.75 L 5.234375 -14.75 Z M 5.234375 -9.4375 "/></g></g><g style="fill:#5e6a48;fill-opacity:1;"><g transform="translate(116.033457, 46.530376)"><path style="stroke:none" d=""/></g><g transform="translate(122.233829, 46.530376)"><path style="stroke:none" d=""/></g></g><g style="fill:#5e6a48;fill-opacity:1;"><g transform="translate(128.450411, 46.530376)"><path style="stroke:none" d="M 10.765625 -4.640625 C 10.765625 -5.328125 10.519531 -5.851562 10.03125 -6.21875 C 9.539062 -6.59375 8.664062 -6.984375 7.40625 -7.390625 C 6.144531 -7.804688 5.144531 -8.210938 4.40625 -8.609375 C 2.394531 -9.691406 1.390625 -11.15625 1.390625 -13 C 1.390625 -13.957031 1.65625 -14.8125 2.1875 -15.5625 C 2.726562 -16.3125 3.503906 -16.894531 4.515625 -17.3125 C 5.523438 -17.738281 6.660156 -17.953125 7.921875 -17.953125 C 9.179688 -17.953125 10.304688 -17.722656 11.296875 -17.265625 C 12.285156 -16.804688 13.050781 -16.160156 13.59375 -15.328125 C 14.144531 -14.492188 14.421875 -13.546875 14.421875 -12.484375 L 10.78125 -12.484375 C 10.78125 -13.285156 10.523438 -13.910156 10.015625 -14.359375 C 9.503906 -14.816406 8.785156 -15.046875 7.859375 -15.046875 C 6.960938 -15.046875 6.265625 -14.851562 5.765625 -14.46875 C 5.273438 -14.09375 5.03125 -13.597656 5.03125 -12.984375 C 5.03125 -12.410156 5.320312 -11.925781 5.90625 -11.53125 C 6.488281 -11.144531 7.34375 -10.785156 8.46875 -10.453125 C 10.539062 -9.828125 12.050781 -9.050781 13 -8.125 C 13.945312 -7.195312 14.421875 -6.046875 14.421875 -4.671875 C 14.421875 -3.140625 13.835938 -1.9375 12.671875 -1.0625 C 11.515625 -0.1875 9.957031 0.25 8 0.25 C 6.632812 0.25 5.394531 0 4.28125 -0.5 C 3.164062 -1 2.3125 -1.679688 1.71875 -2.546875 C 1.132812 -3.421875 0.84375 -4.425781 0.84375 -5.5625 L 4.5 -5.5625 C 4.5 -3.613281 5.664062 -2.640625 8 -2.640625 C 8.863281 -2.640625 9.539062 -2.816406 10.03125 -3.171875 C 10.519531 -3.523438 10.765625 -4.015625 10.765625 -4.640625 Z M 10.765625 -4.640625 "/></g><g transform="translate(143.756819, 46.530376)"><path style="stroke:none" d="M 14.90625 -14.75 L 9.484375 -14.75 L 9.484375 0 L 5.84375 0 L 5.84375 -14.75 L 0.484375 -14.75 L 0.484375 -17.703125 L 14.90625 -17.703125 Z M 14.90625 -14.75 "/></g></g></g></svg>